<!--?xml version="1.0" encoding="UTF-8" standalone="no"?-->
<!-- Created with Inkscape (http://www.inkscape.org/) -->

<svg width="201.44177mm" height="34.880547mm" viewBox="0 0 201.44178 34.880547" version="1.1" id="svg5" sodipodi:docname="welcome_message.svg" inkscape:version="1.1 (c4e8f9e, 2021-05-24)" xmlns:inkscape="http://www.inkscape.org/namespaces/inkscape" xmlns:sodipodi="http://sodipodi.sourceforge.net/DTD/sodipodi-0.dtd" xmlns="http://www.w3.org/2000/svg" xmlns:svg="http://www.w3.org/2000/svg" style="">
  <sodipodi:namedview id="namedview7" pagecolor="#ffffff" bordercolor="#666666" borderopacity="1.0" inkscape:pageshadow="2" inkscape:pageopacity="0.0" inkscape:pagecheckerboard="0" inkscape:document-units="mm" showgrid="false" inkscape:zoom="1.8977417" inkscape:cx="600.45054" inkscape:cy="53.484625" inkscape:window-width="1848" inkscape:window-height="1016" inkscape:window-x="72" inkscape:window-y="27" inkscape:window-maximized="1" inkscape:current-layer="text3442" fit-margin-top="0" fit-margin-left="0" fit-margin-right="0" fit-margin-bottom="0"></sodipodi:namedview>
  <defs id="defs2">
    <path width="494.0899" height="98.617477" id="rect36698" d="M229.0529 259.52802 L723.1428 259.52802 L723.1428 358.14549700000003 L229.0529 358.14549700000003 Z" class="eCNyLwLE_0"></path>
    <path width="678.8703" height="118.08892" id="rect3590" d="M98.797035 719.54944 L777.6673350000001 719.54944 L777.6673350000001 837.63836 L98.797035 837.63836 Z" class="eCNyLwLE_1"></path>
    <path width="641.31903" height="228.73157" id="rect3444" d="M70.39959 429.44421 L711.71862 429.44421 L711.71862 658.17578 L70.39959 658.17578 Z" class="eCNyLwLE_2"></path>
  </defs>
  <g inkscape:label="Layer 1" inkscape:groupmode="layer" id="layer1" transform="translate(-15.711671,-97.965431)">
    <g aria-label="Welcome to my Blog" transform="matrix(0.50801529,0,0,0.50801529,-27.082474,-97.70151)" id="text3442" style="font-size:53.3333px;line-height:1.25;font-family:Z003;-inkscape-font-specification:'Z003, Normal';letter-spacing:0px;word-spacing:0px;white-space:pre;shape-inside:url(#rect3444);fill:#485eac">
      <g aria-label="Welcome to my Blog" transform="matrix(0.61839701,0,0,0.61839701,23.292952,-70.462031)" id="text3588" style="font-size:85.3333px;font-family:sans-serif;shape-inside:url(#rect3590);fill:#ffffff;stroke:#000000;stroke-width:0.999506;stroke-miterlimit:4;stroke-dasharray:none">
        <path d="m 226.79682,757.92881 q 0,-8.70399 -6.05866,-13.99466 -5.80267,-5.12 -14.50666,-5.12 -7.168,0 -14.93333,4.69333 -7.76533,4.608 -11.34933,10.83733 -8.02133,14.08 -15.87199,23.63733 -3.15733,3.84 -6.144,7.33866 -2.90133,3.41333 -5.71733,6.656 2.21867,-3.66933 3.584,-6.144 1.45066,-2.47467 2.13333,-3.84 2.90133,-5.888 2.90133,-10.92266 0,-1.45067 -0.256,-3.66933 -0.256,-2.21867 -0.68266,-5.12 -0.42667,-2.98667 -0.68267,-5.20533 -0.256,-2.21867 -0.256,-3.66933 0,-4.43733 3.328,-10.24 -4.26667,3.75467 -5.632,6.4 -9.13066,17.57866 -16.63999,27.39199 -1.62133,2.13333 -3.66933,4.43733 -2.048,2.304 -4.608,4.94933 -2.13333,2.13333 -3.84,3.84 -1.62133,1.70666 -2.98667,2.90133 9.984,-15.95733 9.984,-22.01599 0,-3.41333 -1.024,-10.496 -1.024,-6.99733 -1.024,-10.49599 0,-2.21867 4.096,-6.48533 0.768,0 1.536,-0.0853 0.768,-0.17066 1.62133,-0.34133 2.21867,-0.68266 2.21867,-1.792 0,-1.10933 -2.048,-1.10933 -1.536,0 -3.66933,2.048 0,-0.17067 -6.05867,-2.47467 -6.82666,-2.56 -11.77599,-2.56 -8.10667,0 -13.39733,3.41334 -6.314665,4.01066 -6.314665,11.60532 0,7.168 7.935995,10.24 v -0.512 q -2.816,-2.21867 -3.92533,-3.75466 -1.45067,-2.21867 -1.45067,-5.20534 0,-7.16799 5.03467,-11.43466 4.69333,-3.84 12.11733,-3.84 7.16799,0 17.32266,5.12 -5.12,6.4 -5.80267,7.68 -3.584,6.05866 -3.584,11.77599 0,8.02133 -0.34133,13.824 -0.256,5.71733 -0.85333,9.38666 -0.59734,3.66933 -4.43733,10.41066 0,0.93867 0.93866,0.93867 1.19467,0 7.25333,-6.05866 3.75467,-3.84 6.48533,-6.912 2.73067,-3.072 4.43733,-5.46133 7.424,-10.06933 12.288,-18.176 0,8.10667 0,12.62933 0,4.43733 -0.0853,5.376 -0.17067,3.84 -0.768,6.74133 -0.512,2.90133 -1.45067,4.864 -2.73067,5.888 -2.73067,6.4 0,0.512 0.768,0.512 2.13334,0 13.14133,-13.824 4.94933,-6.22933 8.53333,-11.00799 3.66933,-4.864 5.888,-8.36267 7.936,-12.03199 13.48266,-16.55466 7.59466,-6.22933 18.77333,-6.22933 7.76533,0 12.71466,4.69333 4.94933,4.69334 4.94933,12.37333 0,7.936 -5.46133,14.67733 -5.80267,7.168 -13.39733,7.168 -6.74133,0 -11.43466,-4.01067 -4.52267,-4.096 -4.52267,-10.83733 0,-9.47199 11.09333,-14.16532 l -0.256,-0.768 q -11.86133,4.60799 -11.86133,14.93332 0,6.99733 4.94933,11.43466 4.94934,4.43734 12.032,4.43734 8.27733,0 14.33599,-7.33867 5.632,-6.91199 5.632,-15.53066 z m -85.5893,-16.38399 q 0,1.024 -3.49866,1.024 1.10933,-1.45067 2.56,-1.62133 0.93866,-0.17067 0.93866,0.59733 z" style="font-family: &quot;Chopin Script&quot;; stroke-width: 0.999506px; stroke-miterlimit: 4;" id="path35125" class="eCNyLwLE_3"></path>
        <path d="m 203.50078,776.44614 -0.68267,-0.59734 q -3.24266,5.376 -10.15466,11.43467 -8.704,7.67999 -14.33599,7.67999 -2.304,0 -2.304,-3.15733 0,-2.64533 1.536,-5.97333 3.92533,0 9.89866,-2.73067 7.76533,-3.58399 7.76533,-8.95999 0,-1.96267 -1.45067,-3.328 -1.45066,-1.36533 -3.41333,-1.36533 -5.97333,0 -12.20266,5.12 -7.168,5.88799 -7.168,14.07999 0,3.24266 2.13333,5.376 2.048,2.13333 5.20534,2.13333 6.22933,0 15.18932,-8.192 6.912,-6.39999 9.984,-11.51999 z m -12.544,-3.92533 q 0,2.98666 -4.69333,7.16799 -4.77866,4.096 -7.85066,4.096 6.656,-13.22666 10.75199,-13.22666 1.792,0 1.792,1.96267 z" style="font-family: &quot;Chopin Script&quot;; stroke-width: 0.999506px; stroke-miterlimit: 4;" id="path35127" class="eCNyLwLE_4"></path>
        <path d="m 235.15932,741.80082 q 0,-1.10933 -0.768,-2.048 -0.768,-1.024 -1.87734,-1.024 -4.69333,0 -15.10399,13.22666 -3.584,4.608 -6.656,9.04533 -2.98666,4.352 -5.46133,8.704 -7.08266,12.45866 -7.08266,19.45599 0,2.90133 1.10933,4.77866 1.45067,2.304 3.84,2.21867 6.31466,-0.256 12.28799,-7.25333 3.41334,-3.92533 8.10667,-12.45866 l -0.68267,-0.59734 q -2.90133,5.71734 -7.33866,11.17867 -5.97333,7.50933 -10.06933,7.50933 -1.792,0 -1.792,-2.048 0,-4.608 2.64533,-10.24 l 4.096,-8.95999 q 11.51999,-6.74133 18.77332,-17.664 5.80267,-8.78933 5.97334,-13.82399 z m -3.66934,0.512 q 0,4.096 -5.63199,13.31199 -6.57067,10.66667 -13.65333,14.848 0.93866,-2.64534 2.98666,-6.74133 2.13334,-4.18134 5.29067,-9.89867 7.42399,-13.31199 9.81333,-13.31199 1.19466,0 1.19466,1.792 z" style="font-family: &quot;Chopin Script&quot;; stroke-width: 0.999506px; stroke-miterlimit: 4;" id="path35129" class="eCNyLwLE_5"></path>
        <path d="m 256.66325,776.44614 -0.68267,-0.59734 q -5.71733,7.936 -13.14133,13.14133 -8.87466,6.144 -17.15199,6.144 -3.84,0 -3.84,-3.072 0,-4.77866 5.20533,-13.05599 5.46133,-8.704 9.30133,-8.704 2.90134,0 2.90134,1.792 0,0.768 -0.93867,1.792 -0.93867,1.024 -1.70667,1.024 -1.10933,0 -2.47466,-1.10933 -0.85334,1.10933 -0.85334,2.90133 0,2.21866 3.072,2.21866 1.96267,0 3.49867,-1.536 1.62133,-1.536 1.62133,-3.49866 0,-1.96267 -1.62133,-3.15733 -1.536,-1.28 -3.49867,-1.28 -8.10666,0 -13.56799,5.63199 -5.54667,5.54667 -5.54667,13.568 0,7.50933 8.448,7.50933 8.78933,0 17.66399,-6.144 7.25333,-5.12 13.312,-13.56799 z" style="font-family: &quot;Chopin Script&quot;; stroke-width: 0.999506px; stroke-miterlimit: 4;" id="path35131" class="eCNyLwLE_6"></path>
        <path d="m 288.23656,776.44614 -0.68267,-0.59734 q -5.71733,5.29067 -10.32533,7.50933 -0.93867,0.42667 -1.62133,0.68267 -0.59733,0.17067 -0.93867,0.256 0.42667,-0.93867 0.768,-1.70666 0.34134,-0.768 0.512,-1.19467 0.768,-1.87733 0.768,-3.92533 0,-3.24267 -1.87733,-5.632 -1.87733,-2.38933 -5.03467,-2.38933 -7.25333,0 -13.31199,5.80266 -5.888,5.80267 -5.888,13.14133 0,2.90133 1.70667,5.29066 1.96266,2.47467 4.69333,2.47467 4.77866,0 9.728,-3.15733 4.43733,-3.072 7.16799,-7.424 2.56,-0.768 3.84,-1.28 7.50933,-4.18133 10.496,-7.85066 z m -16.64,-3.84 q 0,4.43733 -3.328,11.43466 -2.55999,-0.34133 -3.24266,-2.56 2.304,-0.256 2.304,-1.70666 0,-1.792 -1.792,-1.792 -2.64533,0 -2.64533,2.73066 0,2.64533 4.69333,4.18133 -6.144,10.15467 -10.58133,10.15467 -1.62133,0 -1.62133,-2.73067 0,-4.52266 4.94933,-12.88533 5.20533,-8.95999 9.21599,-8.95999 2.048,0 2.048,2.13333 z" style="font-family: &quot;Chopin Script&quot;; stroke-width: 0.999506px; stroke-miterlimit: 4;" id="path35133" class="eCNyLwLE_7"></path>
        <path d="m 333.63383,776.44614 -0.68267,-0.59734 -10.32533,11.52 q -6.74133,7.50933 -8.78933,7.50933 -1.70666,0 -1.70666,-2.048 0,-0.768 1.28,-2.816 l 8.27733,-13.39733 q 1.45066,-2.47466 1.45066,-2.98666 0,-1.62133 -1.19466,-2.90133 -1.10933,-1.28 -2.73067,-1.28 -2.90133,0 -4.77866,1.28 -1.45067,0.93866 -5.376,4.60799 0,-5.88799 -3.84,-5.88799 -5.12,0 -12.11733,7.16799 l 4.352,-8.19199 q -0.512,0.17066 -1.62133,1.28 -1.19467,1.024 -1.45067,1.024 -0.42666,0 -1.62133,-0.256 -1.10933,-0.256 -1.70667,-0.256 -1.10933,0 -1.70666,1.10933 -0.42667,0.42667 -2.048,3.584 l -11.776,22.27199 q 2.38934,-2.38933 3.072,-2.38933 0.17067,0 0.59734,0.0853 0.42666,0.0853 1.024,0.17067 0.512,0.17066 1.10933,0.256 0.512,0.0853 0.85333,0.0853 1.024,0 4.096,-6.05866 3.75466,-7.33867 6.144,-9.89867 7.59466,-7.85066 9.72799,-7.85066 0.93867,0 0.93867,1.19467 0,0.93866 -12.71466,24.40532 2.38933,-2.38933 3.072,-2.38933 0.256,0 1.28,0.256 1.10933,0.34133 1.536,0.34133 1.70666,0 2.30399,-1.10933 2.38934,-4.26667 4.18134,-7.50933 1.792,-3.328 2.98666,-5.71733 7.76533,-9.472 9.984,-9.472 1.536,0 1.536,1.45067 0,1.024 -5.12,8.78933 -5.12,7.85066 -5.12,9.13066 0,2.21866 1.45067,3.75466 1.45066,1.45067 3.66933,1.45067 2.73066,0 5.46133,-2.21867 1.36533,-1.10933 5.632,-5.88799 z" style="font-family: &quot;Chopin Script&quot;; stroke-width: 0.999506px; stroke-miterlimit: 4;" id="path35135" class="eCNyLwLE_8"></path>
        <path d="m 359.9164,776.44614 -0.68267,-0.59734 q -3.24266,5.376 -10.15466,11.43467 -8.704,7.67999 -14.336,7.67999 -2.30399,0 -2.30399,-3.15733 0,-2.64533 1.53599,-5.97333 3.92534,0 9.89867,-2.73067 7.76533,-3.58399 7.76533,-8.95999 0,-1.96267 -1.45067,-3.328 -1.45067,-1.36533 -3.41333,-1.36533 -5.97333,0 -12.20266,5.12 -7.168,5.88799 -7.168,14.07999 0,3.24266 2.13333,5.376 2.048,2.13333 5.20533,2.13333 6.22933,0 15.18933,-8.192 6.912,-6.39999 9.984,-11.51999 z m -12.544,-3.92533 q 0,2.98666 -4.69333,7.16799 -4.77866,4.096 -7.85066,4.096 6.65599,-13.22666 10.75199,-13.22666 1.792,0 1.792,1.96267 z" style="font-family: &quot;Chopin Script&quot;; stroke-width: 0.999506px; stroke-miterlimit: 4;" id="path35137" class="eCNyLwLE_9"></path>
        <path d="m 405.91089,776.44614 -0.68267,-0.59734 q -2.47466,3.24267 -4.52266,5.97334 -2.048,2.64533 -3.66933,4.69333 -2.304,2.816 -5.12,5.03466 -3.92533,2.98667 -6.31467,2.98667 -0.85333,0 -1.536,-1.10934 -0.59733,-1.19466 -0.59733,-2.13333 0,-1.28 1.792,-4.52266 l 8.87466,-15.53066 h 6.4 l 0.512,-1.28 h -6.4 l 8.61867,-15.104 h -0.93867 q -1.87733,2.90134 -3.328,5.03467 -1.45066,2.048 -2.56,3.328 -3.49866,4.09599 -7.59466,6.74133 h -6.74133 l -1.36533,1.28 h 6.14399 l -6.57066,13.56799 q -1.792,3.75467 -1.792,5.888 0,2.13333 1.28,3.84 1.19467,1.62133 3.24266,1.62133 6.48534,0 13.22667,-6.99733 1.96266,-2.13333 4.35199,-5.20533 2.47467,-3.15733 5.29067,-7.50933 z" style="font-family: &quot;Chopin Script&quot;; stroke-width: 0.999506px; stroke-miterlimit: 4;" id="path35139" class="eCNyLwLE_10"></path>
        <path d="m 437.48407,776.44614 -0.68267,-0.59734 q -5.71733,5.29067 -10.32533,7.50933 -0.93866,0.42667 -1.62133,0.68267 -0.59733,0.17067 -0.93866,0.256 0.42666,-0.93867 0.76799,-1.70666 0.34134,-0.768 0.512,-1.19467 0.768,-1.87733 0.768,-3.92533 0,-3.24267 -1.87733,-5.632 -1.87733,-2.38933 -5.03466,-2.38933 -7.25333,0 -13.312,5.80266 -5.88799,5.80267 -5.88799,13.14133 0,2.90133 1.70666,5.29066 1.96267,2.47467 4.69333,2.47467 4.77867,0 9.728,-3.15733 4.43733,-3.072 7.168,-7.424 2.55999,-0.768 3.83999,-1.28 7.50933,-4.18133 10.496,-7.85066 z m -16.63999,-3.84 q 0,4.43733 -3.328,11.43466 -2.56,-0.34133 -3.24267,-2.56 2.304,-0.256 2.304,-1.70666 0,-1.792 -1.792,-1.792 -2.64533,0 -2.64533,2.73066 0,2.64533 4.69333,4.18133 -6.144,10.15467 -10.58133,10.15467 -1.62133,0 -1.62133,-2.73067 0,-4.52266 4.94933,-12.88533 5.20533,-8.95999 9.216,-8.95999 2.048,0 2.048,2.13333 z" style="font-family: &quot;Chopin Script&quot;; stroke-width: 0.999506px; stroke-miterlimit: 4;" id="path35141" class="eCNyLwLE_11"></path>
        <path d="m 508.73727,776.44614 -0.68267,-0.59734 -10.32533,11.52 q -6.74133,7.50933 -8.78933,7.50933 -1.70666,0 -1.70666,-2.048 0,-0.768 1.28,-2.816 l 8.27733,-13.39733 q 1.45066,-2.47466 1.45066,-2.98666 0,-1.62133 -1.19466,-2.90133 -1.10934,-1.28 -2.73067,-1.28 -2.90133,0 -4.77866,1.28 -1.45067,0.93866 -5.376,4.60799 0,-5.88799 -3.84,-5.88799 -5.12,0 -12.11733,7.16799 l 4.352,-8.19199 q -0.512,0.17066 -1.62133,1.28 -1.19467,1.024 -1.45067,1.024 -0.42666,0 -1.62133,-0.256 -1.10933,-0.256 -1.70667,-0.256 -1.10933,0 -1.70666,1.10933 -0.42667,0.42667 -2.048,3.584 l -11.776,22.27199 q 2.38934,-2.38933 3.072,-2.38933 0.17067,0 0.59734,0.0853 0.42666,0.0853 1.02399,0.17067 0.512,0.17066 1.10934,0.256 0.512,0.0853 0.85333,0.0853 1.024,0 4.096,-6.05866 3.75466,-7.33867 6.144,-9.89867 7.59466,-7.85066 9.72799,-7.85066 0.93867,0 0.93867,1.19467 0,0.93866 -12.71466,24.40532 2.38933,-2.38933 3.072,-2.38933 0.256,0 1.28,0.256 1.10933,0.34133 1.53599,0.34133 1.70667,0 2.304,-1.10933 2.38934,-4.26667 4.18134,-7.50933 1.79199,-3.328 2.98666,-5.71733 7.76533,-9.472 9.984,-9.472 1.536,0 1.536,1.45067 0,1.024 -5.12,8.78933 -5.12,7.85066 -5.12,9.13066 0,2.21866 1.45067,3.75466 1.45066,1.45067 3.66933,1.45067 2.73066,0 5.46133,-2.21867 1.36533,-1.10933 5.632,-5.88799 z" style="font-family: &quot;Chopin Script&quot;; stroke-width: 0.999506px; stroke-miterlimit: 4;" id="path35143" class="eCNyLwLE_12"></path>
        <path d="m 541.41985,776.44614 -0.68267,-0.59734 -11.26399,10.58133 -5.888,5.632 q -3.41333,3.15733 -6.57066,4.864 3.24266,-4.608 6.05866,-8.96 2.816,-4.352 5.03466,-8.70399 l 5.632,-10.83733 q -0.512,0.17066 -1.62133,1.28 -1.19467,1.19466 -1.536,1.19466 -0.42667,0 -1.45067,-0.34133 -1.024,-0.34133 -1.62133,-0.34133 -1.28,0 -2.38933,2.048 l -8.96,16.04266 q -1.45066,2.73066 -4.864,4.60799 -2.73066,1.536 -3.83999,1.536 -1.10934,0 -1.10934,-2.38933 0,-1.62133 1.28,-4.18133 l 10.41067,-19.45599 q -0.512,0.17066 -1.62134,1.28 -1.19466,1.19466 -1.45066,1.19466 -0.512,0 -1.62134,-0.34133 -1.10933,-0.34133 -1.70666,-0.34133 -1.28,0 -2.38933,2.048 l -6.82667,12.97066 q -1.45066,2.73066 -1.45066,5.29066 0,5.632 4.52266,5.632 2.73067,0 8.27733,-4.096 l -3.584,7.08266 q -9.21599,2.90134 -13.65333,5.632 -6.57066,4.01067 -6.57066,9.04533 0,2.90133 2.048,4.69333 1.96267,1.87734 4.864,1.87734 4.608,0 8.61866,-4.01067 1.36533,-1.45067 2.816,-3.584 1.45067,-2.13333 3.072,-5.03466 0.34133,-0.68267 1.536,-3.072 1.19466,-2.304 3.328,-6.48533 5.20533,-2.90133 7.67999,-5.12 2.21867,-2.13333 3.75467,-3.584 1.62133,-1.45066 2.47466,-2.304 8.448,-7.93599 11.264,-10.75199 z m -31.48799,23.55199 q -2.21866,3.75466 -3.75466,6.22933 -1.62134,2.56 -2.73067,4.01066 -5.29066,7.08267 -9.21599,7.08267 -3.584,0 -3.584,-3.584 0,-4.608 6.22933,-8.27733 1.70666,-0.93867 4.94933,-2.38933 3.24266,-1.36534 8.10666,-3.072 z" style="font-family: &quot;Chopin Script&quot;; stroke-width: 0.999506px; stroke-miterlimit: 4;" id="path35145" class="eCNyLwLE_13"></path>
        <path d="m 676.67303,748.62748 q 0,-4.26666 -6.48533,-7.08266 -5.376,-2.304 -10.15467,-2.304 -5.29066,0 -8.36266,1.10933 -1.87733,0.68267 -3.24266,1.19467 -1.28,0.42667 -1.96267,0.768 -1.87733,-0.93867 -3.41333,-1.62133 -1.536,-0.68267 -2.73067,-1.10934 -4.864,-1.70666 -11.09333,-1.70666 -7.85066,0 -13.82399,2.21866 -1.45067,0.59734 -8.36266,4.608 -6.144,-2.47466 -10.58133,-2.47466 -12.544,0 -21.33333,9.30132 -8.87466,9.30133 -8.87466,21.76 0,11.09332 7.25333,17.57866 6.82666,6.22933 18.09066,6.22933 13.14133,0 21.93066,-5.46134 7.25333,-4.60799 14.33599,-15.53066 1.792,-2.81599 4.18133,-10.92266 2.13333,-7.59466 4.352,-10.58133 6.31466,-8.61866 9.55733,-10.23999 3.41333,1.87733 3.41333,10.23999 0,5.54667 -6.82666,11.94667 -2.13333,-1.87734 -4.096,-1.87734 -2.73067,0 -2.73067,1.87734 0,1.02399 1.19467,1.79199 1.19467,0.68267 2.21867,0.68267 0.512,0 1.024,0 0.59733,-0.0853 1.19466,-0.17067 0.512,2.73067 0.512,5.20534 0,6.91199 -2.816,9.47199 -6.14399,0 -11.51999,1.70667 -7.68,2.47466 -7.68,7.93599 0,3.75467 5.80267,3.92534 3.66933,0 7.08266,-0.93867 3.49866,-0.85333 6.31466,-2.64533 2.90134,-1.87734 5.12,-4.52267 2.21867,-2.64533 3.49867,-6.05866 5.71733,-2.38933 10.41066,-6.48533 l -0.68267,-0.68267 q -4.69333,4.18133 -9.21599,5.71733 0,-8.10666 -4.096,-13.14133 5.03466,-2.90133 7.33866,-5.46133 3.15733,-3.41333 3.15733,-8.27733 0,-3.328 -2.304,-6.57066 -0.42666,-0.512 -1.45066,-1.70667 -1.024,-1.19466 -2.73067,-3.072 7.25333,-2.98666 11.94666,-2.98666 4.43734,0 9.30133,1.96267 6.05867,2.55999 6.05867,6.39999 0,1.87734 -2.56,3.41333 -2.048,1.36534 -4.18133,1.70667 l 0.85333,0.85333 q 2.56,-0.42666 4.69333,-1.87733 2.47467,-1.792 2.47467,-4.096 z m -35.58399,18.77333 q -0.93866,0.34133 -1.96266,0.34133 -1.70667,0 -1.70667,-1.19466 0,-0.768 1.024,-0.768 1.28,0 2.64533,1.62133 z m -22.01599,-2.38933 q 0,1.45066 -1.28,4.35199 -3.072,2.816 -7.168,2.816 -5.37599,0 -8.36266,-3.41333 -2.98666,-3.41333 -2.98666,-8.78933 0,-4.52266 2.38933,-8.02133 1.28,-1.87733 5.376,-5.97333 12.03199,6.656 12.03199,19.02933 z m 19.71199,19.79732 q -1.45066,1.96267 -2.56,3.41333 -1.10933,1.45067 -1.87733,2.38934 -5.03466,5.03466 -9.89866,4.94933 -3.584,-0.0853 -3.584,-2.38934 0,-4.77866 6.99733,-6.91199 4.77867,-1.45067 10.92266,-1.45067 z m 6.05867,-41.55732 q -6.82667,2.64534 -12.97066,9.38667 -5.632,6.144 -8.448,13.65333 -1.36533,3.58399 -2.21867,5.63199 -0.768,1.96267 -0.93866,2.47467 -2.98667,6.656 -7.33867,11.17866 -4.35199,4.43733 -9.72799,7.25333 -5.97333,3.15733 -11.60533,3.15733 -10.752,0 -17.40799,-5.88799 -6.99733,-6.22934 -6.99733,-16.81066 0,-11.86133 8.70399,-20.992 8.78933,-9.21599 20.56533,-9.21599 5.12,0 9.64266,2.47466 -3.66933,3.41334 -4.52266,4.608 -3.24267,4.52267 -3.24267,9.728 0,5.80266 3.15733,9.47199 3.41333,3.92534 9.13066,3.92534 2.048,0 6.05867,-1.28 -1.62133,5.11999 -6.912,7.85066 -3.41333,1.70667 -6.912,1.70667 v 1.19466 q 2.73067,0 5.20534,-0.85333 2.47466,-0.93867 4.52266,-2.56 2.13333,-1.62133 3.66933,-3.84 1.62134,-2.21866 2.56,-4.864 4.608,-4.60799 4.608,-8.70399 0,-1.792 -0.68267,-3.66933 -0.0853,-0.0853 -0.42666,-0.59734 -0.256,-0.512 -0.85334,-1.62133 l -0.93866,0.256 q 1.96266,3.75466 1.792,5.71733 0,1.36533 -0.93867,2.98667 -0.85333,1.536 -1.70667,2.98666 0.17067,-1.19466 0.256,-1.96266 0.0853,-0.768 0.17067,-1.024 0,-12.032 -12.20266,-19.62666 5.03466,-3.49867 9.04533,-4.864 5.12,-1.792 12.28799,-1.792 8.53333,0 15.616,4.52266 z" style="font-family: &quot;Chopin Script&quot;; stroke-width: 0.999506px; stroke-miterlimit: 4;" id="path35147" class="eCNyLwLE_14"></path>
        <path d="m 689.72892,741.80082 q 0,-1.10933 -0.768,-2.048 -0.768,-1.024 -1.87733,-1.024 -4.69334,0 -15.104,13.22666 -3.584,4.608 -6.656,9.04533 -2.98666,4.352 -5.46133,8.704 -7.08266,12.45866 -7.08266,19.45599 0,2.90133 1.10933,4.77866 1.45067,2.304 3.84,2.21867 6.31467,-0.256 12.288,-7.25333 3.41333,-3.92533 8.10666,-12.45866 l -0.68267,-0.59734 q -2.90133,5.71734 -7.33866,11.17867 -5.97333,7.50933 -10.06933,7.50933 -1.792,0 -1.792,-2.048 0,-4.608 2.64533,-10.24 l 4.096,-8.95999 q 11.52,-6.74133 18.77333,-17.664 5.80266,-8.78933 5.97333,-13.82399 z m -3.66933,0.512 q 0,4.096 -5.632,13.31199 -6.57067,10.66667 -13.65333,14.848 0.93867,-2.64534 2.98667,-6.74133 2.13333,-4.18134 5.29066,-9.89867 7.424,-13.31199 9.81333,-13.31199 1.19467,0 1.19467,1.792 z" style="font-family: &quot;Chopin Script&quot;; stroke-width: 0.999506px; stroke-miterlimit: 4;" id="path35149" class="eCNyLwLE_15"></path>
        <path d="m 709.61154,776.44614 -0.68267,-0.59734 q -5.71733,5.29067 -10.32532,7.50933 -0.93867,0.42667 -1.62134,0.68267 -0.59733,0.17067 -0.93866,0.256 0.42666,-0.93867 0.768,-1.70666 0.34133,-0.768 0.512,-1.19467 0.768,-1.87733 0.768,-3.92533 0,-3.24267 -1.87734,-5.632 -1.87733,-2.38933 -5.03466,-2.38933 -7.25333,0 -13.312,5.80266 -5.88799,5.80267 -5.88799,13.14133 0,2.90133 1.70666,5.29066 1.96267,2.47467 4.69333,2.47467 4.77867,0 9.728,-3.15733 4.43733,-3.072 7.168,-7.424 2.56,-0.768 3.84,-1.28 7.50933,-4.18133 10.49599,-7.85066 z m -16.63999,-3.84 q 0,4.43733 -3.328,11.43466 -2.56,-0.34133 -3.24267,-2.56 2.304,-0.256 2.304,-1.70666 0,-1.792 -1.792,-1.792 -2.64533,0 -2.64533,2.73066 0,2.64533 4.69333,4.18133 -6.14399,10.15467 -10.58133,10.15467 -1.62133,0 -1.62133,-2.73067 0,-4.52266 4.94933,-12.88533 5.20533,-8.95999 9.216,-8.95999 2.048,0 2.048,2.13333 z" style="font-family: &quot;Chopin Script&quot;; stroke-width: 0.999506px; stroke-miterlimit: 4;" id="path35151" class="eCNyLwLE_16"></path>
        <path d="m 739.13679,776.44614 -0.68267,-0.59734 q -7.25333,12.11733 -21.07732,20.82133 2.21867,-5.29067 3.92533,-8.87466 1.70667,-3.66934 2.90133,-5.71733 2.38934,-4.26667 4.43733,-7.59467 2.048,-3.41333 3.75467,-6.05866 -0.17067,0.0853 -0.59733,0.42666 -0.34134,0.34134 -1.024,0.93867 -1.45067,1.19467 -1.45067,1.19467 l -1.024,-0.42667 q -1.024,-0.34133 -2.21866,-0.34133 -0.68267,0 -1.792,0.768 -1.45067,-1.536 -3.328,-1.536 -6.656,0 -12.37333,5.97333 -5.632,5.888 -5.632,12.54399 0,8.192 5.97333,8.192 2.21867,0 5.12,-3.41333 l -2.56,6.57066 q -3.24266,1.19467 -6.22933,2.64533 -3.072,1.536 -5.80266,3.41334 -7.68,5.29066 -7.68,10.41066 0,1.45066 0.68267,2.64533 0.59733,1.19467 1.62133,1.96267 1.024,0.85333 2.38933,1.28 1.36533,0.512 2.90133,0.512 4.608,0 8.36267,-4.52267 2.73066,-3.41333 5.37599,-9.30133 0.59734,-1.36533 1.536,-3.84 1.024,-2.47466 2.38934,-6.31466 15.27466,-9.55733 22.10132,-21.75999 z m -16.21333,-4.096 q 0,3.072 -5.11999,12.37333 -5.54667,10.15466 -8.448,10.15466 -1.536,0 -1.536,-2.13333 0,-4.52267 4.69333,-12.88533 5.03467,-9.13066 8.87466,-9.13066 1.536,0 1.536,1.62133 z m -11.86132,28.33065 q -1.96267,5.97334 -5.376,11.09333 -4.77867,7.08267 -9.04533,7.08267 -3.584,0 -3.584,-3.328 0,-4.18133 7.08266,-9.216 5.71733,-4.096 10.92267,-5.632 z" style="font-family: &quot;Chopin Script&quot;; stroke-width: 0.999506px; stroke-miterlimit: 4;" id="path35153" class="eCNyLwLE_17"></path>
      </g>
      <g aria-label="powered by vivus.js" transform="matrix(0.29289184,0,0,0.29289184,337.79059,359.33154)" id="text36696" style="font-size:40px;font-family:sans-serif;shape-inside:url(#rect36698);fill:none;stroke:#000000;stroke-width:0.672072">
        <path d="m 244.85273,286.19797 -0.32,-0.28 q -2.12,3.44 -4.6,6.04 -3.56,3.68 -6.24,3.68 -0.68,0 -1.32,-0.72 5.88,-4.32 5.88,-8.72 0,-1.28 -0.68,-2.2 -0.8,-1.08 -1.96,-1.08 -1.24,0 -2,0.76 l 0.68,-1.24 q -0.2,0.08 -0.8,0.6 -0.56,0.56 -0.72,0.56 -0.16,0 -0.68,-0.16 -0.48,-0.16 -0.68,-0.16 -0.52,0 -0.8,0.4 -0.28,0.36 -0.36,0.48 -1.52,2.76 -3.12,5.76 -1.6,3 -3.32,6.28 -2.08,4 -3.84,7.28 -1.76,3.28 -3.28,5.88 l 1.68,-1.48 q 1.16,0.52 2,0.52 0.8,0 2.52,-4.24 2.56,-6.28 4.48,-9.68 0.36,1.76 1.68,1.76 1.32,0 2.84,-1.04 0.8,0.92 1.8,0.92 2.92,0 6.48,-3.68 2.56,-2.68 4.68,-6.24 z m -9,-1.6 q 0,1.64 -1.72,4.72 -0.68,1.28 -1.4,2.36 -0.68,1.04 -1.44,1.96 -1.4,-1.04 -1.96,-1.04 -0.68,0 -0.96,0.12 0.88,-2.2 2.4,-4.72 2.56,-4.24 4.28,-4.24 0.8,0 0.8,0.84 z m -5,9.48 -0.6,0.6 q -0.12,0.08 -0.28,0.24 -0.44,0.24 -0.92,0.24 -0.48,0 -0.76,-0.52 -0.32,-0.52 -0.32,-1.04 0,-0.48 1.04,-0.48 0.8,0 1.84,0.96 z" style="font-family:'Chopin Script';-inkscape-font-specification:'Chopin Script, Normal'" id="path39920" class="eCNyLwLE_18"></path>
        <path d="m 259.61272,286.19797 -0.32,-0.28 q -2.68,2.48 -4.84,3.52 -0.44,0.2 -0.76,0.32 -0.28,0.08 -0.44,0.12 0.2,-0.44 0.36,-0.8 0.16,-0.36 0.24,-0.56 0.36,-0.88 0.36,-1.84 0,-1.52 -0.88,-2.64 -0.88,-1.12 -2.36,-1.12 -3.4,0 -6.24,2.72 -2.76,2.72 -2.76,6.16 0,1.36 0.8,2.48 0.92,1.16 2.2,1.16 2.24,0 4.56,-1.48 2.08,-1.44 3.36,-3.48 1.2,-0.36 1.8,-0.6 3.52,-1.96 4.92,-3.68 z m -7.8,-1.8 q 0,2.08 -1.56,5.36 -1.2,-0.16 -1.52,-1.2 1.08,-0.12 1.08,-0.8 0,-0.84 -0.84,-0.84 -1.24,0 -1.24,1.28 0,1.24 2.2,1.96 -2.88,4.76 -4.96,4.76 -0.76,0 -0.76,-1.28 0,-2.12 2.32,-6.04 2.44,-4.2 4.32,-4.2 0.96,0 0.96,1 z" style="font-family:'Chopin Script';-inkscape-font-specification:'Chopin Script, Normal'" id="path39922" class="eCNyLwLE_19"></path>
        <path d="m 281.6927,286.19797 -0.32,-0.28 q -0.48,1.16 -2.76,2.36 -2,1.08 -3.52,1.28 1.24,-1.84 1.24,-3.84 0,-1.08 -0.64,-2 -0.64,-1.12 -1.68,-1.12 -1.44,0 -2.28,1.24 -0.8,1.12 -0.8,2.56 0,1.88 1.32,3.12 -2.84,5.4 -5.4,5.4 -1.12,0 -1.12,-1.28 0,-0.8 0.76,-2.2 l 4.76,-9 q -0.24,0.08 -0.76,0.6 -0.52,0.52 -0.72,0.52 -0.24,0 -0.76,-0.12 -0.48,-0.16 -0.72,-0.16 -0.56,0 -0.88,0.56 l -3.04,5.64 q -0.44,0.88 -1,1.68 -0.56,0.76 -1.24,1.52 -1.76,2 -3.12,2 -0.56,0 -0.56,-1.04 0,-0.64 0.48,-1.68 l 5.04,-9.52 q -0.2,0.04 -0.76,0.6 -0.52,0.52 -0.68,0.52 -0.24,0 -0.8,-0.12 -0.52,-0.16 -0.76,-0.16 -0.56,0 -1,0.8 l -3.12,5.88 q -0.92,1.76 -0.92,2.92 0,1.08 0.52,1.76 0.6,0.8 1.6,0.8 1.56,0 3.08,-1.16 0.44,-0.36 1.04,-0.96 0.64,-0.6 1.4,-1.48 -0.24,0.8 -0.24,1.48 0,0.48 0.16,0.76 0.76,1.36 2.36,1.36 2.32,0 5.04,-1.64 2.52,-1.56 3.88,-3.64 5.32,-1.04 6.92,-3.96 z m -7.76,-1.92 q 0,1 -0.48,2.48 -0.2,0.72 -0.48,1.28 -0.24,0.52 -0.52,0.92 -0.96,-0.76 -0.96,-2.56 0,-1 0.36,-1.84 0.4,-1.12 1.32,-1.12 0.76,0 0.76,0.84 z" style="font-family:'Chopin Script';-inkscape-font-specification:'Chopin Script, Normal'" id="path39924" class="eCNyLwLE_20"></path>
        <path d="m 293.97263,286.19797 -0.32,-0.28 q -1.52,2.52 -4.76,5.36 -4.08,3.6 -6.72,3.6 -1.08,0 -1.08,-1.48 0,-1.24 0.72,-2.8 1.84,0 4.64,-1.28 3.64,-1.68 3.64,-4.2 0,-0.92 -0.68,-1.56 -0.68,-0.64 -1.6,-0.64 -2.8,0 -5.72,2.4 -3.36,2.76 -3.36,6.6 0,1.52 1,2.52 0.96,1 2.44,1 2.92,0 7.12,-3.84 3.24,-3 4.68,-5.4 z m -5.88,-1.84 q 0,1.4 -2.2,3.36 -2.24,1.92 -3.68,1.92 3.12,-6.2 5.04,-6.2 0.84,0 0.84,0.92 z" style="font-family:'Chopin Script';-inkscape-font-specification:'Chopin Script, Normal'" id="path39926" class="eCNyLwLE_21"></path>
        <path d="m 305.77258,286.19797 -0.32,-0.28 q -6,8.64 -9.16,8.64 -1.04,0 -1.04,-1.08 0,-0.4 0.76,-1.64 l 3.16,-5.4 q 0.84,-1.44 0.84,-1.96 0,-0.64 -0.4,-1.08 -0.4,-0.48 -1,-0.48 -0.92,0 -4.2,2.76 1.4,-1.64 1.4,-2.76 0,-0.92 -0.96,-0.92 -0.92,0 -1.56,1.08 -0.68,1.04 -0.68,1.96 0,1.52 0.92,1.52 0.68,0 1.48,-0.6 0.8,-0.64 1.04,-0.64 0.16,0 0.16,0.28 0,0.36 -1.64,3.2 -1.64,2.84 -1.64,3.76 0.04,2.88 2.08,2.88 3.08,0 6.32,-3.32 1.8,-1.84 4.44,-5.92 z m -10.56,-3.24 q 0,0.8 -1.56,2.76 -0.44,0 -0.44,-0.68 0,-0.68 0.52,-1.56 0.52,-0.88 1.12,-0.88 0.36,0 0.36,0.36 z" style="font-family:'Chopin Script';-inkscape-font-specification:'Chopin Script, Normal'" id="path39928" class="eCNyLwLE_22"></path>
        <path d="m 318.05252,286.19797 -0.32,-0.28 q -1.52,2.52 -4.76,5.36 -4.08,3.6 -6.72,3.6 -1.08,0 -1.08,-1.48 0,-1.24 0.72,-2.8 1.84,0 4.64,-1.28 3.64,-1.68 3.64,-4.2 0,-0.92 -0.68,-1.56 -0.68,-0.64 -1.6,-0.64 -2.8,0 -5.72,2.4 -3.36,2.76 -3.36,6.6 0,1.52 1,2.52 0.96,1 2.44,1 2.92,0 7.12,-3.84 3.24,-3 4.68,-5.4 z m -5.88,-1.84 q 0,1.4 -2.2,3.36 -2.24,1.92 -3.68,1.92 3.12,-6.2 5.04,-6.2 0.84,0 0.84,0.92 z" style="font-family:'Chopin Script';-inkscape-font-specification:'Chopin Script, Normal'" id="path39930" class="eCNyLwLE_23"></path>
        <path d="m 340.65247,271.15797 q 0,-1.4 -1.16,-1.4 -2.72,0 -7.32,5.92 -2.8,3.56 -5.56,8.32 -1.08,-1.08 -2.04,-1.08 -3.88,0 -6.6,2.56 -2.76,2.6 -2.76,6.36 0,1.4 0.76,2.44 0.92,1.16 2.12,1.16 1.12,0 1.8,-0.52 0.44,-0.32 1.84,-2.04 0.56,1.48 1.08,2 0.8,0.68 2.12,0.68 1.4,0 3.96,-2.36 0.84,-0.8 2.44,-2.52 1.64,-1.76 4.04,-4.48 l -0.32,-0.28 q -2.2,2.44 -3.76,4.08 -1.52,1.64 -2.44,2.52 -2.6,2.4 -3.76,2.4 -0.84,0 -0.84,-0.96 0,-0.88 4.52,-9.24 3.2,-1.48 7.36,-5.88 4.52,-4.76 4.52,-7.68 z m -1.68,0.28 q 0,2.8 -3.56,6.84 -2.88,3.28 -5.96,5.2 7.32,-12.92 8.8,-12.92 0.72,0 0.72,0.88 z m -13.2,13.08 q 0,1.44 -3.32,6.16 -1.04,1.52 -1.6,2.28 -0.52,0.72 -0.52,0.72 -0.96,1.24 -2.08,1.24 -0.88,0 -0.88,-1.32 0,-2 2.6,-6 2.76,-4.16 4.6,-4.16 0.4,0 0.8,0.36 0.4,0.32 0.4,0.72 z" style="font-family:'Chopin Script';-inkscape-font-specification:'Chopin Script, Normal'" id="path39932" class="eCNyLwLE_24"></path>
        <path d="m 363.45242,286.19797 -0.32,-0.28 q -2.68,3.52 -6.88,3.64 0.96,-1.44 0.96,-3.64 0,-3 -3,-3 -1.12,0 -1.76,1.36 -0.48,1.04 -0.48,2.32 0,2.28 1.44,3.04 -0.72,1.52 -2.16,3.24 -1.76,2.12 -2.8,2.04 -1.28,0 -1.28,-1.2 0,-1.2 2,-5 1.32,-2.52 2,-3.84 0.72,-1.32 0.8,-1.48 2.24,-0.92 5.76,-4.24 4.56,-4.36 4.56,-8 0,-0.6 -0.36,-1.12 -0.32,-0.56 -0.88,-0.56 -3.52,0 -10.16,9.16 -1.04,1.48 -1.96,3.04 -0.92,1.56 -1.72,3.28 -1.96,4.32 -1.96,7.48 0,1.28 0.68,2.16 0.64,0.84 1.92,0.84 2,0 4.64,-1.8 2.44,-1.72 3.52,-3.6 4.6,-0.04 7.44,-3.84 z m -2.84,-14.64 q -0.08,1.52 -2.32,5.08 -2.72,4.32 -6.08,6.08 0.72,-1.68 1.4,-3.04 0.68,-1.36 1.32,-2.52 0.52,-0.88 1.12,-1.8 0.6,-0.96 1.28,-2 2.08,-3.04 2.84,-3.04 0.48,0 0.44,1.24 z m -5.88,13.44 q 0,1.52 -1.08,4.16 -1.12,-0.84 -1.12,-2.56 0,-0.96 0.28,-1.8 0.4,-1.24 1.16,-1.24 0.76,0 0.76,1.44 z" style="font-family:'Chopin Script';-inkscape-font-specification:'Chopin Script, Normal'" id="path39934" class="eCNyLwLE_25"></path>
        <path d="m 378.73235,286.19797 -0.32,-0.28 -5.28,4.96 -2.76,2.64 q -1.6,1.48 -3.08,2.28 1.52,-2.16 2.84,-4.2 1.32,-2.04 2.36,-4.08 l 2.64,-5.08 q -0.24,0.08 -0.76,0.6 -0.56,0.56 -0.72,0.56 -0.2,0 -0.68,-0.16 -0.48,-0.16 -0.76,-0.16 -0.6,0 -1.12,0.96 l -4.2,7.52 q -0.68,1.28 -2.28,2.16 -1.28,0.72 -1.8,0.72 -0.52,0 -0.52,-1.12 0,-0.76 0.6,-1.96 l 4.88,-9.12 q -0.24,0.08 -0.76,0.6 -0.56,0.56 -0.68,0.56 -0.24,0 -0.76,-0.16 -0.52,-0.16 -0.8,-0.16 -0.6,0 -1.12,0.96 l -3.2,6.08 q -0.68,1.28 -0.68,2.48 0,2.64 2.12,2.64 1.28,0 3.88,-1.92 l -1.68,3.32 q -4.32,1.36 -6.4,2.64 -3.08,1.88 -3.08,4.24 0,1.36 0.96,2.2 0.92,0.88 2.28,0.88 2.16,0 4.04,-1.88 0.64,-0.68 1.32,-1.68 0.68,-1 1.44,-2.36 0.16,-0.32 0.72,-1.44 0.56,-1.08 1.56,-3.04 2.44,-1.36 3.6,-2.4 1.04,-1 1.76,-1.68 0.76,-0.68 1.16,-1.08 3.96,-3.72 5.28,-5.04 z m -14.76,11.04 q -1.04,1.76 -1.76,2.92 -0.76,1.2 -1.28,1.88 -2.48,3.32 -4.32,3.32 -1.68,0 -1.68,-1.68 0,-2.16 2.92,-3.88 0.8,-0.44 2.32,-1.12 1.52,-0.64 3.8,-1.44 z" style="font-family:'Chopin Script';-inkscape-font-specification:'Chopin Script, Normal'" id="path39936" class="eCNyLwLE_26"></path>
        <path d="m 405.93231,286.19797 -0.32,-0.28 q -3.84,3.36 -6.56,3.36 1.12,-1.48 1.12,-3.6 0,-1.04 -0.64,-2.04 -0.68,-1.04 -1.64,-1.04 -1.24,0 -2.12,1.32 -0.8,1.16 -0.8,2.44 0,1.4 1.28,2.92 -2.72,5.64 -5.2,5.64 -1.2,0 -1.2,-1.52 0,-0.76 0.52,-1.8 l 4.76,-9.12 q -0.28,0.08 -0.8,0.6 -0.52,0.52 -0.6,0.52 -0.16,0 -0.68,-0.16 -0.52,-0.16 -0.8,-0.16 -0.56,0 -0.88,0.56 l -2.8,5.24 q -1.16,2.2 -1.16,4.16 0,0.88 0.68,1.56 0.64,0.64 1.52,0.64 2.92,0 5.88,-2.04 2.52,-1.8 3.24,-3.6 3.64,-0.16 7.2,-3.6 z m -7.68,-0.88 q 0,0.6 -1.68,3.48 -1.12,-1.36 -1.12,-2.4 0,-0.88 0.48,-1.8 0.52,-1.08 1.36,-1.08 0.96,0 0.96,1.8 z" style="font-family:'Chopin Script';-inkscape-font-specification:'Chopin Script, Normal'" id="path39938" class="eCNyLwLE_27"></path>
        <path d="m 412.97226,278.27797 q 0,-0.6 -0.44,-0.96 -0.4,-0.4 -1,-0.4 -0.84,0 -1.44,0.64 -0.6,0.6 -0.6,1.44 0,0.64 0.44,1.12 0.44,0.44 1.08,0.44 0.8,0 1.36,-0.72 0.6,-0.72 0.6,-1.56 z m 2.4,7.92 -0.32,-0.28 q -1.56,1.88 -4.44,4.8 -3.92,3.96 -4.84,3.96 -0.88,0 -0.88,-1.04 0,-0.8 0.32,-1.52 l 5.08,-9.68 q -0.24,0.08 -0.8,0.64 -0.56,0.56 -0.72,0.56 -0.04,0 -0.52,-0.16 -0.48,-0.2 -0.84,-0.2 -0.6,0 -1.08,0.84 -0.88,1.6 -1.48,2.72 -0.64,1.08 -0.96,1.72 -1.48,2.68 -1.48,4.56 0,2.32 2.48,2.32 2.6,0 10.48,-9.24 z" style="font-family:'Chopin Script';-inkscape-font-specification:'Chopin Script, Normal'" id="path39940" class="eCNyLwLE_28"></path>
        <path d="m 430.45219,286.19797 -0.32,-0.28 q -3.84,3.36 -6.56,3.36 1.12,-1.48 1.12,-3.6 0,-1.04 -0.64,-2.04 -0.68,-1.04 -1.64,-1.04 -1.24,0 -2.12,1.32 -0.8,1.16 -0.8,2.44 0,1.4 1.28,2.92 -2.72,5.64 -5.2,5.64 -1.2,0 -1.2,-1.52 0,-0.76 0.52,-1.8 l 4.76,-9.12 q -0.28,0.08 -0.8,0.6 -0.52,0.52 -0.6,0.52 -0.16,0 -0.68,-0.16 -0.52,-0.16 -0.8,-0.16 -0.56,0 -0.88,0.56 l -2.8,5.24 q -1.16,2.2 -1.16,4.16 0,0.88 0.68,1.56 0.64,0.64 1.52,0.64 2.92,0 5.88,-2.04 2.52,-1.8 3.24,-3.6 3.64,-0.16 7.2,-3.6 z m -7.68,-0.88 q 0,0.6 -1.68,3.48 -1.12,-1.36 -1.12,-2.4 0,-0.88 0.48,-1.8 0.52,-1.08 1.36,-1.08 0.96,0 0.96,1.8 z" style="font-family:'Chopin Script';-inkscape-font-specification:'Chopin Script, Normal'" id="path39942" class="eCNyLwLE_29"></path>
        <path d="m 447.09214,286.19797 -0.32,-0.28 q -1.8,2.6 -4.24,5.08 -3.44,3.56 -5.2,3.56 -1.04,0 -1.04,-0.8 0,-0.6 0.64,-1.76 l 5.08,-9.56 q -0.2,0.04 -0.76,0.6 -0.52,0.52 -0.68,0.52 -0.2,0 -0.72,-0.12 -0.48,-0.16 -0.72,-0.16 -0.64,0 -0.92,0.52 l -3.12,5.56 q -0.56,1 -2.12,3 -1.84,2.32 -2.56,2.32 -0.96,0 -0.96,-1.04 0,-1 0.64,-2.24 l 4.76,-8.96 q -0.2,0.08 -0.72,0.6 -0.52,0.52 -0.72,0.52 -0.24,0 -0.72,-0.12 -0.44,-0.16 -0.6,-0.16 -0.76,0 -1.08,0.56 l -2.92,5.44 q -1.32,2.48 -1.32,4.24 0,1.92 2.04,1.92 1.36,0 2.4,-0.72 0.32,-0.28 0.92,-0.88 0.64,-0.64 1.52,-1.68 0.28,3.28 2.36,3.28 2.76,0 6.56,-3.68 1.16,-1.16 2.28,-2.52 1.12,-1.36 2.24,-3.04 z" style="font-family:'Chopin Script';-inkscape-font-specification:'Chopin Script, Normal'" id="path39944" class="eCNyLwLE_30"></path>
        <path d="m 457.01208,286.19797 -0.32,-0.28 q -2.32,3.84 -4.36,5.36 -1.4,1.04 -3.76,1.56 0.72,-1.12 0.72,-3.64 0,-1.6 -1.2,-4.36 1.24,-2.2 1.24,-3.08 0,-0.72 -1,-0.72 -1.16,0 -1.68,1.44 -0.44,1.12 -0.44,2.4 0,0.68 0.36,2 0.4,1.2 0.4,1.88 0,0.88 -0.4,1.96 -0.4,1.08 -1.04,1.56 -0.2,-0.08 -1.36,-1.04 -0.84,-0.72 -1.48,-0.72 -0.88,0 -1.4,0.68 -0.52,0.64 -0.52,1.56 0,2.76 3.16,2.76 2.52,0 4.4,-2.12 2.28,-0.36 3.88,-1.4 2.28,-1.56 4.8,-5.8 z m -8.16,-4.36 q 0,1.16 -1,2.52 -0.24,-0.4 -0.24,-1.28 0,-0.36 0.2,-0.96 0.24,-0.72 0.56,-0.72 0.48,0 0.48,0.44 z m -3.72,10.84 q -0.32,0.48 -1.6,0.48 -1.28,-0.24 -1.28,-1.12 0,-0.8 0.72,-0.8 0.28,0 1.16,0.68 0.84,0.72 1,0.76 z" style="font-family:'Chopin Script';-inkscape-font-specification:'Chopin Script, Normal'" id="path39946" class="eCNyLwLE_31"></path>
        <path d="m 460.85205,292.91797 q 0,-2 -1.68,-2 -0.92,0 -1.64,0.76 -0.68,0.72 -0.68,1.64 0,1.92 1.68,1.92 0.92,0 1.6,-0.68 0.72,-0.72 0.72,-1.64 z" style="font-family:'Chopin Script';-inkscape-font-specification:'Chopin Script, Normal'" id="path39948" class="eCNyLwLE_32"></path>
        <path d="m 473.41203,278.39797 q 0,-1.48 -1.4,-1.48 -0.84,0 -1.52,0.68 -0.68,0.68 -0.68,1.52 0,1.52 1.48,1.52 0.88,0 1.48,-0.68 0.64,-0.68 0.64,-1.56 z m 1.32,7.8 -0.32,-0.28 q -3.88,4.16 -6.52,6.72 -2.6,2.56 -3.96,3.6 l 7.2,-13.8 q -0.16,0.04 -0.76,0.6 -0.56,0.56 -0.76,0.56 -0.2,0 -0.68,-0.16 -0.44,-0.2 -0.6,-0.2 -0.68,0 -1.48,1.4 -3.52,6.2 -5.84,12.84 -1.48,0.32 -2.92,1 -1.44,0.68 -2.84,1.68 -3.44,2.48 -3.44,4.96 0,1.36 1.16,2.16 1,0.76 2.44,0.76 3.64,0 5.64,-4.52 1.04,-2.4 1.72,-4.08 0.68,-1.68 1.04,-2.6 3.2,-2.08 10.92,-10.64 z m -14,12.08 q -0.68,1.92 -2.16,4.32 -2.44,3.88 -4.56,3.88 -1.68,0 -1.68,-1.48 0,-2.04 3.2,-4.4 3,-2.16 5.2,-2.32 z" style="font-family:'Chopin Script';-inkscape-font-specification:'Chopin Script, Normal'" id="path39950" class="eCNyLwLE_33"></path>
        <path d="m 484.61203,286.19797 -0.32,-0.28 q -2.32,3.84 -4.36,5.36 -1.4,1.04 -3.76,1.56 0.72,-1.12 0.72,-3.64 0,-1.6 -1.2,-4.36 1.24,-2.2 1.24,-3.08 0,-0.72 -1,-0.72 -1.16,0 -1.68,1.44 -0.44,1.12 -0.44,2.4 0,0.68 0.36,2 0.4,1.2 0.4,1.88 0,0.88 -0.4,1.96 -0.4,1.08 -1.04,1.56 -0.2,-0.08 -1.36,-1.04 -0.84,-0.72 -1.48,-0.72 -0.88,0 -1.4,0.68 -0.52,0.64 -0.52,1.56 0,2.76 3.16,2.76 2.52,0 4.4,-2.12 2.28,-0.36 3.88,-1.4 2.28,-1.56 4.8,-5.8 z m -8.16,-4.36 q 0,1.16 -1,2.52 -0.24,-0.4 -0.24,-1.28 0,-0.36 0.2,-0.96 0.24,-0.72 0.56,-0.72 0.48,0 0.48,0.44 z m -3.72,10.84 q -0.32,0.48 -1.6,0.48 -1.28,-0.24 -1.28,-1.12 0,-0.8 0.72,-0.8 0.28,0 1.16,0.68 0.84,0.72 1,0.76 z" style="font-family:'Chopin Script';-inkscape-font-specification:'Chopin Script, Normal'" id="path39952" class="eCNyLwLE_34"></path>
      </g>
    </g>
  </g>
<style data-made-with="vivus-instant">.eCNyLwLE_0{stroke-dasharray:1186 1188;stroke-dashoffset:1187;animation:eCNyLwLE_draw 2000ms linear 0ms forwards;}.eCNyLwLE_1{stroke-dasharray:1594 1596;stroke-dashoffset:1595;animation:eCNyLwLE_draw 2000ms linear 29ms forwards;}.eCNyLwLE_2{stroke-dasharray:1741 1743;stroke-dashoffset:1742;animation:eCNyLwLE_draw 2000ms linear 58ms forwards;}.eCNyLwLE_3{stroke-dasharray:829 831;stroke-dashoffset:830;animation:eCNyLwLE_draw 2000ms linear 88ms forwards;}.eCNyLwLE_4{stroke-dasharray:187 189;stroke-dashoffset:188;animation:eCNyLwLE_draw 2000ms linear 117ms forwards;}.eCNyLwLE_5{stroke-dasharray:272 274;stroke-dashoffset:273;animation:eCNyLwLE_draw 2000ms linear 147ms forwards;}.eCNyLwLE_6{stroke-dasharray:186 188;stroke-dashoffset:187;animation:eCNyLwLE_draw 2000ms linear 176ms forwards;}.eCNyLwLE_7{stroke-dasharray:198 200;stroke-dashoffset:199;animation:eCNyLwLE_draw 2000ms linear 205ms forwards;}.eCNyLwLE_8{stroke-dasharray:311 313;stroke-dashoffset:312;animation:eCNyLwLE_draw 2000ms linear 235ms forwards;}.eCNyLwLE_9{stroke-dasharray:187 189;stroke-dashoffset:188;animation:eCNyLwLE_draw 2000ms linear 264ms forwards;}.eCNyLwLE_10{stroke-dasharray:184 186;stroke-dashoffset:185;animation:eCNyLwLE_draw 2000ms linear 294ms forwards;}.eCNyLwLE_11{stroke-dasharray:198 200;stroke-dashoffset:199;animation:eCNyLwLE_draw 2000ms linear 323ms forwards;}.eCNyLwLE_12{stroke-dasharray:311 313;stroke-dashoffset:312;animation:eCNyLwLE_draw 2000ms linear 352ms forwards;}.eCNyLwLE_13{stroke-dasharray:348 350;stroke-dashoffset:349;animation:eCNyLwLE_draw 2000ms linear 382ms forwards;}.eCNyLwLE_14{stroke-dasharray:973 975;stroke-dashoffset:974;animation:eCNyLwLE_draw 2000ms linear 411ms forwards;}.eCNyLwLE_15{stroke-dasharray:272 274;stroke-dashoffset:273;animation:eCNyLwLE_draw 2000ms linear 441ms forwards;}.eCNyLwLE_16{stroke-dasharray:198 200;stroke-dashoffset:199;animation:eCNyLwLE_draw 2000ms linear 470ms forwards;}.eCNyLwLE_17{stroke-dasharray:344 346;stroke-dashoffset:345;animation:eCNyLwLE_draw 2000ms linear 500ms forwards;}.eCNyLwLE_18{stroke-dasharray:147 149;stroke-dashoffset:148;animation:eCNyLwLE_draw 2000ms linear 529ms forwards;}.eCNyLwLE_19{stroke-dasharray:93 95;stroke-dashoffset:94;animation:eCNyLwLE_draw 2000ms linear 558ms forwards;}.eCNyLwLE_20{stroke-dasharray:143 145;stroke-dashoffset:144;animation:eCNyLwLE_draw 2000ms linear 588ms forwards;}.eCNyLwLE_21{stroke-dasharray:88 90;stroke-dashoffset:89;animation:eCNyLwLE_draw 2000ms linear 617ms forwards;}.eCNyLwLE_22{stroke-dasharray:82 84;stroke-dashoffset:83;animation:eCNyLwLE_draw 2000ms linear 647ms forwards;}.eCNyLwLE_23{stroke-dasharray:88 90;stroke-dashoffset:89;animation:eCNyLwLE_draw 2000ms linear 676ms forwards;}.eCNyLwLE_24{stroke-dasharray:175 177;stroke-dashoffset:176;animation:eCNyLwLE_draw 2000ms linear 705ms forwards;}.eCNyLwLE_25{stroke-dasharray:162 164;stroke-dashoffset:163;animation:eCNyLwLE_draw 2000ms linear 735ms forwards;}.eCNyLwLE_26{stroke-dasharray:164 166;stroke-dashoffset:165;animation:eCNyLwLE_draw 2000ms linear 764ms forwards;}.eCNyLwLE_27{stroke-dasharray:98 100;stroke-dashoffset:99;animation:eCNyLwLE_draw 2000ms linear 794ms forwards;}.eCNyLwLE_28{stroke-dasharray:72 74;stroke-dashoffset:73;animation:eCNyLwLE_draw 2000ms linear 823ms forwards;}.eCNyLwLE_29{stroke-dasharray:98 100;stroke-dashoffset:99;animation:eCNyLwLE_draw 2000ms linear 852ms forwards;}.eCNyLwLE_30{stroke-dasharray:104 106;stroke-dashoffset:105;animation:eCNyLwLE_draw 2000ms linear 882ms forwards;}.eCNyLwLE_31{stroke-dasharray:80 82;stroke-dashoffset:81;animation:eCNyLwLE_draw 2000ms linear 911ms forwards;}.eCNyLwLE_32{stroke-dasharray:14 16;stroke-dashoffset:15;animation:eCNyLwLE_draw 2000ms linear 941ms forwards;}.eCNyLwLE_33{stroke-dasharray:135 137;stroke-dashoffset:136;animation:eCNyLwLE_draw 2000ms linear 970ms forwards;}.eCNyLwLE_34{stroke-dasharray:80 82;stroke-dashoffset:81;animation:eCNyLwLE_draw 2000ms linear 1000ms forwards;}@keyframes eCNyLwLE_draw{100%{stroke-dashoffset:0;}}@keyframes eCNyLwLE_fade{0%{stroke-opacity:1;}94.44444444444444%{stroke-opacity:1;}100%{stroke-opacity:0;}}</style></svg>
