<?xml version="1.0" standalone="no"?>
<!DOCTYPE svg PUBLIC "-//W3C//DTD SVG 20010904//EN"
 "http://www.w3.org/TR/2001/REC-SVG-20010904/DTD/svg10.dtd">
<svg version="1.0" xmlns="http://www.w3.org/2000/svg"
 width="2056.000000pt" height="2056.000000pt" viewBox="0 0 2056.000000 2056.000000"
 preserveAspectRatio="xMidYMid meet">
<metadata>
Created by potrace 1.11, written by Peter Selinger 2001-2013
</metadata>
<g transform="translate(0.000000,2056.000000) scale(0.100000,-0.100000)"
fill="#000000" stroke="none">
<path d="M9595 20553 c-86 -7 -237 -34 -302 -54 -254 -78 -350 -238 -307 -509
24 -151 37 -193 257 -835 87 -252 147 -453 172 -575 2 -8 10 -44 18 -80 8 -36
18 -81 21 -100 3 -19 8 -46 11 -60 14 -67 35 -237 43 -345 37 -551 -63 -1058
-308 -1555 -73 -148 -224 -410 -236 -410 -17 0 -245 150 -349 229 -491 372
-832 832 -1035 1394 -73 202 -145 475 -176 666 -3 18 -7 43 -10 55 -2 11 -10
68 -19 126 -8 58 -16 121 -19 140 -3 19 -8 58 -11 85 -3 28 -8 68 -10 90 -9
71 -15 119 -20 175 -6 55 -11 94 -20 160 -3 19 -7 55 -10 80 -3 25 -7 56 -9
70 -2 14 -8 48 -12 75 -4 28 -8 52 -9 55 -4 18 -16 68 -19 85 -21 111 -93 251
-161 313 -168 153 -456 110 -958 -144 -59 -30 -130 -68 -158 -85 -27 -16 -52
-29 -54 -29 -2 0 -77 -44 -166 -97 -90 -54 -174 -105 -188 -113 -38 -22 -214
-133 -226 -142 -5 -5 -120 -81 -255 -171 -314 -209 -660 -449 -939 -653 -1001
-731 -1482 -1146 -1698 -1469 -90 -135 -124 -228 -124 -340 1 -110 82 -235
221 -336 83 -61 230 -139 600 -322 490 -242 619 -315 852 -476 363 -251 632
-520 852 -855 94 -144 163 -272 256 -481 62 -140 163 -464 194 -625 19 -93 20
-88 -21 -99 -51 -14 -258 -58 -308 -66 -332 -51 -587 -60 -875 -29 -392 41
-795 174 -1174 385 -109 61 -113 64 -291 181 -149 98 -302 211 -530 393 -476
378 -633 472 -804 480 -240 11 -420 -215 -596 -750 -39 -116 -119 -397 -129
-450 -2 -11 -14 -58 -26 -104 -11 -46 -25 -102 -29 -125 -8 -35 -19 -88 -45
-206 -11 -49 -27 -126 -32 -155 -3 -16 -9 -46 -14 -65 -5 -19 -12 -51 -15 -70
-3 -19 -12 -67 -20 -107 -8 -39 -18 -88 -21 -109 -3 -20 -8 -46 -10 -58 -11
-55 -96 -539 -119 -686 -15 -91 -29 -174 -31 -185 -2 -10 -6 -37 -9 -60 -3
-22 -13 -82 -21 -132 -21 -136 -48 -328 -60 -417 -3 -27 -7 -56 -9 -65 -1 -9
-6 -45 -10 -81 -4 -36 -8 -72 -10 -80 -1 -8 -6 -44 -10 -80 -3 -36 -8 -76 -10
-90 -2 -14 -7 -58 -10 -97 -3 -40 -8 -81 -10 -92 -2 -11 -7 -64 -10 -118 -4
-54 -9 -111 -12 -128 -12 -79 -10 -605 3 -705 14 -108 30 -190 45 -225 4 -11
11 -31 14 -45 4 -14 22 -53 41 -87 71 -129 191 -193 351 -187 151 5 295 44
738 200 350 122 614 204 774 239 108 24 221 48 241 51 62 10 88 14 125 19 22
3 54 7 70 10 128 19 443 25 610 12 438 -35 885 -176 1290 -409 109 -63 215
-131 215 -138 0 -23 -224 -345 -318 -459 -145 -174 -311 -336 -482 -472 -182
-145 -470 -310 -695 -401 -149 -60 -448 -155 -547 -173 -12 -3 -32 -7 -43 -9
-116 -25 -184 -39 -205 -42 -44 -7 -84 -14 -106 -18 -18 -4 -62 -10 -149 -21
-11 -2 -45 -6 -75 -10 -30 -3 -66 -8 -80 -10 -53 -8 -108 -14 -170 -20 -36 -3
-76 -8 -90 -10 -14 -2 -52 -7 -85 -10 -33 -3 -73 -8 -90 -10 -206 -30 -264
-40 -361 -65 -127 -32 -236 -84 -290 -139 -208 -209 -96 -623 384 -1421 57
-96 122 -200 142 -230 20 -30 39 -60 41 -65 7 -17 322 -489 336 -503 7 -7 13
-17 13 -22 0 -5 6 -15 12 -22 7 -7 33 -42 57 -78 64 -93 224 -323 234 -335 8
-10 175 -244 239 -335 102 -145 541 -725 568 -750 3 -3 17 -21 32 -42 15 -20
33 -42 40 -50 7 -7 31 -36 53 -63 21 -28 42 -52 45 -55 3 -3 30 -34 60 -70
201 -239 420 -457 571 -570 172 -127 277 -171 404 -166 95 3 150 26 227 95
115 103 180 211 427 713 273 555 416 798 625 1058 247 309 547 569 856 744
152 86 464 226 560 251 8 2 60 18 115 35 93 28 340 90 362 90 6 0 15 -17 21
-37 14 -47 59 -254 66 -308 4 -23 8 -50 10 -60 33 -182 48 -513 32 -698 -4
-40 -9 -97 -12 -127 -2 -30 -9 -77 -14 -105 -5 -27 -12 -67 -15 -88 -9 -65
-62 -277 -93 -372 -77 -235 -184 -468 -326 -705 -44 -74 -82 -137 -86 -140 -3
-3 -40 -57 -82 -120 -43 -63 -156 -216 -253 -340 -320 -409 -362 -464 -418
-550 -177 -272 -198 -447 -75 -601 37 -46 133 -125 193 -159 68 -39 215 -111
243 -120 15 -5 68 -24 118 -43 226 -86 724 -218 1099 -291 11 -2 56 -12 100
-21 44 -9 91 -19 105 -21 14 -3 81 -15 150 -29 69 -13 141 -26 160 -29 19 -3
58 -10 85 -15 28 -6 62 -13 78 -15 15 -3 53 -10 85 -15 31 -6 71 -13 87 -15
17 -3 140 -24 275 -46 135 -22 256 -43 270 -45 40 -6 183 -27 205 -31 11 -1
70 -10 130 -18 61 -9 128 -19 150 -22 22 -2 51 -7 65 -9 14 -2 48 -7 75 -10
28 -4 64 -9 80 -11 17 -2 53 -6 80 -9 28 -3 66 -7 85 -10 75 -10 175 -20 285
-30 39 -4 86 -8 105 -10 212 -23 713 -26 852 -7 435 62 582 239 502 606 -8 39
-17 81 -20 93 -8 38 -90 294 -138 428 -156 436 -255 769 -295 990 -6 33 -13
70 -15 81 -17 85 -35 230 -43 339 -13 165 -5 546 12 598 2 6 6 35 9 62 3 28
11 75 17 105 6 30 15 73 19 95 16 79 41 168 81 293 39 121 49 148 79 217 8 17
14 32 15 35 24 77 239 475 299 553 18 23 19 22 181 -86 530 -353 907 -794
1139 -1327 15 -36 34 -78 41 -95 61 -141 174 -539 201 -712 3 -19 8 -45 10
-57 2 -11 6 -34 9 -51 3 -16 7 -41 10 -55 3 -14 7 -47 11 -75 3 -27 8 -57 9
-66 2 -9 6 -40 10 -70 3 -30 8 -70 10 -89 4 -31 26 -223 41 -350 2 -25 7 -58
9 -75 2 -16 7 -52 10 -80 13 -119 44 -268 75 -365 56 -176 158 -284 294 -309
186 -35 507 63 886 271 25 13 77 42 115 63 361 198 987 610 1675 1102 63 45
120 86 125 90 6 5 26 19 45 33 67 46 426 314 535 398 125 98 395 312 411 327
6 5 33 29 60 52 434 368 687 665 740 873 20 80 14 177 -15 241 -26 57 -95 135
-170 193 -50 38 -80 57 -179 117 -40 23 -189 98 -552 277 -307 152 -568 298
-725 407 -85 59 -269 199 -310 236 -124 112 -156 143 -221 209 -364 377 -630
872 -762 1420 -49 204 -49 195 -5 208 84 24 122 32 288 62 311 55 641 68 899
35 17 -2 50 -7 73 -9 299 -38 627 -140 933 -291 306 -152 586 -340 1025 -690
83 -66 177 -140 210 -165 33 -25 62 -47 65 -51 15 -17 204 -136 264 -166 397
-201 637 37 880 872 30 106 72 262 81 305 2 8 12 53 24 100 18 74 46 195 56
240 20 91 111 557 131 665 13 77 31 176 39 220 19 106 82 479 89 530 4 22 11
65 16 95 5 30 12 73 15 95 3 22 10 67 15 100 5 33 12 77 15 98 8 57 14 98 20
142 29 203 60 448 70 550 4 33 8 76 10 95 3 34 12 122 20 205 25 263 26 737 2
890 -61 387 -225 531 -547 479 -144 -23 -229 -48 -590 -174 -391 -137 -531
-181 -713 -229 -175 -45 -386 -87 -487 -97 -30 -3 -61 -7 -67 -9 -52 -17 -427
-25 -593 -12 -156 11 -364 46 -535 91 -136 35 -357 118 -504 187 -68 33 -125
59 -126 59 -5 0 -235 134 -292 170 -29 18 -53 36 -53 40 0 10 121 199 176 274
142 194 336 411 484 541 367 322 819 551 1340 679 149 36 373 80 470 91 30 3
62 8 70 10 8 2 40 7 70 10 30 3 89 10 130 15 41 5 100 12 130 15 30 3 66 8 80
10 14 2 54 6 90 9 36 4 76 8 90 10 14 2 52 8 85 12 33 4 62 8 65 9 3 0 27 4
53 9 88 14 154 29 233 55 148 47 243 120 290 224 25 55 28 73 28 162 0 226
-109 507 -389 1000 -246 433 -841 1310 -1385 2040 -451 605 -783 992 -1035
1210 -39 33 -72 63 -75 66 -14 16 -171 120 -215 142 -176 88 -328 74 -457 -42
-122 -110 -184 -214 -461 -781 -251 -513 -374 -715 -641 -1054 -54 -69 -338
-350 -416 -412 -232 -184 -452 -317 -715 -429 -202 -86 -488 -173 -687 -209
-36 -7 -37 -6 -47 31 -14 50 -69 317 -76 368 -3 22 -8 60 -11 85 -3 25 -7 56
-9 70 -6 33 -18 271 -18 345 0 71 11 279 17 315 2 14 7 48 10 75 10 82 36 217
62 320 65 257 186 555 331 809 102 178 302 470 447 652 23 28 55 68 71 89 17
22 58 74 93 117 261 328 358 478 407 631 103 322 -175 549 -944 768 -95 27
-184 51 -197 54 -13 3 -36 7 -51 11 -15 3 -30 7 -33 9 -20 13 -607 138 -865
185 -27 5 -111 20 -185 34 -180 33 -486 86 -530 92 -19 2 -46 7 -60 10 -14 3
-41 8 -60 10 -19 3 -73 11 -120 19 -133 22 -154 25 -360 55 -80 11 -156 23
-170 25 -14 2 -50 7 -80 10 -30 3 -62 8 -70 10 -8 3 -40 7 -70 10 -30 2 -66 7
-80 9 -14 3 -52 8 -85 11 -33 3 -73 8 -90 10 -16 2 -61 7 -100 11 -38 3 -83 8
-100 10 -16 1 -66 6 -110 9 -44 4 -100 9 -125 11 -58 5 -583 11 -635 7z"/>
</g>
</svg>
